<svg width="31" height="31" viewBox="0 0 31 31" fill="none" xmlns="http://www.w3.org/2000/svg">
<g clip-path="url(#clip0)">
<path d="M18.9946 22.7944C21.4937 18.6494 24.6524 12.8222 24.6524 9.8269C24.6524 4.77423 20.5437 0.665527 15.491 0.665527C10.4383 0.665527 6.32963 4.77423 6.32963 9.8269C6.32963 12.8222 9.48831 18.6494 11.9874 22.7944C9.02237 23.0183 2.27539 23.8231 2.27539 26.4916C2.27539 29.1178 9.12524 30.3159 15.4971 30.3159C21.8628 30.3159 28.7187 29.1178 28.7187 26.4916C28.7127 23.8231 21.9596 23.0183 18.9946 22.7944ZM7.59431 9.8269C7.59431 5.47011 11.1403 1.92416 15.491 1.92416C19.8478 1.92416 23.3938 5.47011 23.3938 9.8269C23.3938 13.633 17.3305 23.1817 15.491 25.9894C13.6515 23.1817 7.59431 13.633 7.59431 9.8269ZM15.491 29.0513C7.75164 29.0513 3.53402 27.357 3.53402 26.4856C3.53402 25.8139 6.31753 24.3677 12.7317 23.9986C13.9359 25.941 14.8496 27.3146 14.9706 27.478C15.134 27.6958 15.612 27.956 16.0175 27.478C16.1445 27.3267 17.0522 25.941 18.2564 23.9986C24.6705 24.3677 27.454 25.8079 27.454 26.4856C27.448 27.363 23.2304 29.0513 15.491 29.0513Z" fill="#048F00"/>
<path d="M19.4783 9.82655C19.4783 7.62394 17.6932 5.83887 15.4906 5.83887C13.288 5.83887 11.5029 7.62394 11.5029 9.82655C11.5029 12.0291 13.288 13.8142 15.4906 13.8142C17.6932 13.8142 19.4783 12.0291 19.4783 9.82655ZM12.7616 9.82655C12.7616 8.31982 13.9839 7.0975 15.4906 7.0975C16.9973 7.0975 18.2197 8.31982 18.2197 9.82655C18.2197 11.3333 16.9973 12.5556 15.4906 12.5556C13.9839 12.5556 12.7616 11.3333 12.7616 9.82655Z" fill="#048F00"/>
</g>
<defs>
<clipPath id="clip0">
<rect width="30.9817" height="30.9817" fill="white"/>
</clipPath>
</defs>
</svg>
