<svg width="60" height="60" viewBox="0 0 60 60" fill="none" xmlns="http://www.w3.org/2000/svg">
<path d="M52.2583 30.0974H50.3228C50.3228 41.3029 41.2058 50.4199 30.0003 50.4199C18.7947 50.4199 9.67767 41.3029 9.67767 30.0974C9.67767 19.7428 17.4678 11.1881 27.493 9.94631L25.4451 11.9943L26.8135 13.3622L31.3687 8.80704L26.8135 4.25232L25.4451 5.62029L27.7756 7.95081C16.5431 9.07071 7.74219 18.5747 7.74219 30.0974C7.74219 42.3713 17.7263 52.3554 30.0003 52.3554C42.2742 52.3554 52.2583 42.3713 52.2583 30.0974Z" fill="white"/>
<path d="M23.1973 0.861911L25.0945 0.483887L25.4725 2.38204L23.5753 2.75959L23.1973 0.861911Z" fill="white"/>
<path d="M17.625 2.75106L19.4131 2.01013L20.1535 3.79819L18.3659 4.53911L17.625 2.75106Z" fill="white"/>
<path d="M12.5273 5.6911L14.1354 4.61609L15.2108 6.22553L13.6024 7.30006L12.5273 5.6911Z" fill="white"/>
<path d="M8.10254 9.56877L9.47099 8.20032L10.8399 9.56877L9.47099 10.9377L8.10254 9.56877Z" fill="white"/>
<path d="M27.0965 17.5166V18.5534C23.8176 19.0235 21.29 21.8511 21.29 25.2586V26.2263C21.29 29.9612 24.3298 33.0005 28.0642 33.0005H31.9352C32.4692 33.0005 32.9029 33.4343 32.9029 33.9682V34.936C32.9029 35.4704 32.4692 35.9037 31.9352 35.9037H28.0642C27.5303 35.9037 27.0965 35.4704 27.0965 34.936V33.9682H21.29V34.936C21.29 38.3434 23.8176 41.1706 27.0965 41.6417V42.6779C27.0965 44.2789 28.3993 45.5811 29.9997 45.5811C31.6002 45.5811 32.9029 44.2789 32.9029 42.6779V41.6417C36.1818 41.1715 38.7094 38.3434 38.7094 34.936V33.9682C38.7094 30.2338 35.6696 27.194 31.9352 27.194H28.0642C27.5303 27.194 27.0965 26.7607 27.0965 26.2263V25.2586C27.0965 24.7246 27.5303 24.2908 28.0642 24.2908H31.9352C32.4692 24.2908 32.9029 24.7246 32.9029 25.2586V26.2263H38.7094V25.2586C38.7094 21.8511 36.1818 19.0245 32.9029 18.5534V17.5166C32.9029 15.9162 31.6002 14.6134 29.9997 14.6134C28.3993 14.6134 27.0965 15.9162 27.0965 17.5166ZM30.9675 17.5166V20.4199H31.9352C34.2723 20.4199 36.2272 22.0855 36.6761 24.2908H34.673C34.2733 23.1648 33.1973 22.3553 31.9352 22.3553H28.0642C26.4638 22.3553 25.161 23.6581 25.161 25.2586V26.2263C25.161 27.8272 26.4638 29.1295 28.0642 29.1295H31.9352C34.6031 29.1295 36.7739 31.3003 36.7739 33.9682V34.936C36.7739 37.6044 34.6031 39.7747 31.9352 39.7747H30.9675V42.6779C30.9675 43.2124 30.5337 43.6457 29.9997 43.6457C29.4658 43.6457 29.032 43.2124 29.032 42.6779V39.7747H28.0642C25.7271 39.7747 23.7722 38.1095 23.3233 35.9037H25.3264C25.7262 37.0302 26.8021 37.8392 28.0642 37.8392H31.9352C33.5357 37.8392 34.8384 36.5369 34.8384 34.936V33.9682C34.8384 32.3678 33.5357 31.065 31.9352 31.065H28.0642C25.3963 31.065 23.2255 28.8947 23.2255 26.2263V25.2586C23.2255 22.5907 25.3963 20.4199 28.0642 20.4199H29.032V17.5166C29.032 16.9827 29.4658 16.5489 29.9997 16.5489C30.5337 16.5489 30.9675 16.9827 30.9675 17.5166Z" fill="white"/>
<path d="M8.28015 12.3241L6.7827 11.0969C2.40849 16.437 0 23.1842 0 30.0974C0 37.491 2.71374 44.5932 7.64034 50.0981L9.08203 48.8067C4.47392 43.6585 1.93548 37.0143 1.93548 30.0974C1.93548 23.6303 4.18851 17.3187 8.28015 12.3241Z" fill="white"/>
<path d="M34.5264 57.8094L36.4236 57.4314L36.8016 59.3286L34.9044 59.7066L34.5264 57.8094Z" fill="white"/>
<path d="M39.8438 56.3961L41.6318 55.6552L42.3723 57.4432L40.5847 58.1841L39.8438 56.3961Z" fill="white"/>
<path d="M44.7852 53.9682L46.3932 52.8937L47.4687 54.5026L45.8602 55.5776L44.7852 53.9682Z" fill="white"/>
<path d="M49.1602 50.6273L50.5286 49.2584L51.897 50.6273L50.5286 51.9958L49.1602 50.6273Z" fill="white"/>
<path d="M52.3597 10.097L50.918 11.3885C55.5261 16.5367 58.0645 23.1809 58.0645 30.0974C58.0645 36.5658 55.8115 42.8774 51.7199 47.8721L53.2173 49.0992C57.5915 43.7592 60 37.0119 60 30.0974C60 22.7042 57.2863 15.6015 52.3597 10.097Z" fill="white"/>
</svg>
