<svg width="60" height="60" viewBox="0 0 60 60" fill="none" xmlns="http://www.w3.org/2000/svg">
<g clip-path="url(#clip0)">
<path d="M48.6926 52.2581L46.4523 45.5362C45.6693 43.1894 43.6719 41.4572 41.2371 41.0139L34.7697 39.8372V39.3359C35.8952 38.6827 36.8745 37.8088 37.6545 36.7743H39.6084C41.209 36.7743 42.5116 35.4717 42.5116 33.871V22.2581C42.5116 15.3214 36.8677 9.67749 29.931 9.67749C22.9942 9.67749 17.3503 15.3214 17.3503 22.2581V29.0323C17.3503 30.8981 18.6771 32.4591 20.4364 32.823C20.9793 35.6043 22.7174 37.9578 25.0922 39.3359V39.8372L18.6239 41.0139C16.19 41.4572 14.1916 43.1894 13.4097 45.5362L13.0226 46.6985L9.72644 43.4023C9.34902 43.0249 9.34902 42.4104 9.72644 42.033L13.549 38.2114L6.37418 31.0365L2.05418 35.3565C0.774829 36.6359 0.0703125 38.3372 0.0703125 40.1468C0.0703125 41.9565 0.774829 43.6568 2.05418 44.9362L15.1332 58.0152C16.4126 59.2946 18.1139 60.0001 19.9235 60.0001C21.7332 60.0001 23.4335 59.2946 24.6829 58.0443L29.3968 53.7252L27.9268 52.2581H48.6926ZM40.5761 33.871C40.5761 34.4052 40.1416 34.8388 39.6084 34.8388H38.7945C39.0752 34.1991 39.2881 33.5246 39.4255 32.823C39.8397 32.7368 40.221 32.5723 40.5761 32.3652V33.871ZM39.6084 30.6988V27.3659C40.1842 27.7017 40.5761 28.3191 40.5761 29.0323C40.5761 29.7456 40.1842 30.363 39.6084 30.6988ZM20.2535 30.6988C19.6777 30.363 19.2858 29.7456 19.2858 29.0323C19.2858 28.3191 19.6777 27.7017 20.2535 27.3659V30.6988ZM20.2535 24.1936V25.2988C19.909 25.3888 19.5858 25.5243 19.2858 25.6994V22.2581C19.2858 16.3888 24.0616 11.613 29.931 11.613C35.8003 11.613 40.5761 16.3888 40.5761 22.2581V25.6994C40.2761 25.5243 39.9529 25.3878 39.6084 25.2988V24.1936H38.6406C35.779 24.1936 33.0887 23.0788 31.0642 21.0552L29.931 19.922L28.7977 21.0552C26.7732 23.0788 24.0829 24.1936 21.2213 24.1936H20.2535ZM22.189 30.9678V26.0923C25.0952 25.8736 27.8048 24.6746 29.931 22.653C32.0571 24.6746 34.7668 25.8746 37.6729 26.0923V30.9678C37.6729 32.3788 37.2877 33.6988 36.6258 34.8388H29.931V36.7743H35.0348C33.6703 37.9752 31.8868 38.7097 29.931 38.7097C25.6622 38.7097 22.189 35.2365 22.189 30.9678ZM32.8342 40.1991V40.2446L29.931 43.1478L27.0277 40.2446V40.1991C27.9452 40.4875 28.9197 40.6452 29.931 40.6452C30.9422 40.6452 31.9168 40.4875 32.8342 40.1991ZM15.2445 46.1478C15.8029 44.4717 17.2303 43.2339 18.9693 42.9165L25.7339 41.6875L29.931 45.8846L34.1271 41.6885L40.8906 42.9175C42.6297 43.2349 44.0571 44.4717 44.6155 46.1488L46.0081 50.3227H25.9913L22.2219 46.5533L18.0335 50.342C17.6687 50.7088 17.031 50.7088 16.6652 50.342L14.5516 48.2285L15.2445 46.1478ZM6.37322 33.7733L10.8113 38.2114L9.76031 39.2623L5.32225 34.8243L6.37322 33.7733ZM23.3426 56.6488C22.429 57.5604 21.2135 58.0646 19.9216 58.0646C18.6297 58.0646 17.4142 57.5604 16.4997 56.6468L3.42063 43.5688C2.50709 42.6552 2.00386 41.4397 2.00386 40.1478C2.00386 38.8549 2.50709 37.6394 3.42063 36.7259L3.95289 36.1936L8.39096 40.6317L8.35612 40.6665C7.22483 41.7988 7.22483 43.6404 8.35612 44.7727L15.2958 51.7123C15.8445 52.2601 16.5732 52.563 17.3493 52.563C18.1255 52.563 18.8542 52.261 19.3671 51.7462L19.4397 51.6814L23.8981 56.1398L23.3426 56.6488ZM25.3264 54.8294L20.8777 50.3807L22.1561 49.2252L26.5971 53.6662L25.3264 54.8294Z" fill="white"/>
<path d="M57.0278 0H43.4794C41.8788 0 40.5762 1.30258 40.5762 2.90323V10.6452C40.5762 12.2458 41.8788 13.5484 43.4794 13.5484H46.0642L45.0636 19.3848L54.4023 13.5484H57.0278C58.6284 13.5484 59.931 12.2458 59.931 10.6452V2.90323C59.931 1.30258 58.6284 0 57.0278 0ZM57.9955 10.6452C57.9955 11.1784 57.561 11.6129 57.0278 11.6129H53.8468L47.7007 15.4539L48.3597 11.6129H43.4794C42.9462 11.6129 42.5117 11.1784 42.5117 10.6452V2.90323C42.5117 2.37 42.9462 1.93548 43.4794 1.93548H57.0278C57.561 1.93548 57.9955 2.37 57.9955 2.90323V10.6452Z" fill="white"/>
<path d="M56.0621 3.87085H44.4492V5.80633H56.0621V3.87085Z" fill="white"/>
<path d="M52.1912 7.7417H44.4492V9.67718H52.1912V7.7417Z" fill="white"/>
<path d="M56.0585 7.7417H54.123V9.67718H56.0585V7.7417Z" fill="white"/>
<path d="M29.9319 2.90332C17.2874 2.90332 6.39547 11.6498 3.56386 23.8501L1.72999 20.793L0.0703125 21.7888L3.47193 27.4569L9.13999 24.0553L8.14418 22.3956L5.5216 23.9691C8.26418 12.8082 18.3006 4.8388 29.9319 4.8388C32.4742 4.8388 34.9826 5.21622 37.3874 5.96138L37.9603 4.113C35.3697 3.30977 32.6687 2.90332 29.9319 2.90332Z" fill="white"/>
<path d="M59.4569 21.4272L53.7888 18.0256L50.3882 23.6947L52.0479 24.6905L53.7414 21.8676C54.6327 24.4756 55.0885 27.2037 55.0885 29.9995C55.0885 35.7547 53.095 41.3811 49.4766 45.8414L50.9795 47.0608C54.8775 42.2569 57.024 36.1969 57.024 29.9995C57.024 27.0392 56.5469 24.1485 55.6169 21.3808L58.4611 23.0869L59.4569 21.4272Z" fill="white"/>
</g>
<defs>
<clipPath id="clip0">
<rect width="60" height="60" fill="white"/>
</clipPath>
</defs>
</svg>
