<svg width="60" height="62" viewBox="0 0 60 62" fill="none" xmlns="http://www.w3.org/2000/svg">
<path d="M21.5045 52.5209C19.4415 51.1763 17.7327 49.3547 16.5228 47.21C15.3128 45.0654 14.6371 42.6608 14.5531 40.1998C14.551 40.1006 14.5292 40.0027 14.489 39.9119C14.4488 39.8212 14.3909 39.7393 14.3188 39.671C14.2467 39.6028 14.1618 39.5495 14.0689 39.5144C13.9761 39.4792 13.8771 39.4629 13.7779 39.4663C13.6787 39.4696 13.5811 39.4927 13.4909 39.5341C13.4006 39.5755 13.3195 39.6344 13.2522 39.7074C13.1849 39.7804 13.1328 39.866 13.0989 39.9593C13.0649 40.0526 13.0499 40.1518 13.0545 40.2509C13.1289 42.5608 13.6795 44.8304 14.6716 46.9176C15.6638 49.0048 17.0762 50.8647 18.8204 52.3808C20.5647 53.8968 22.6031 55.0364 24.8082 55.7282C27.0133 56.42 29.3374 56.649 31.6351 56.401L32.3598 59.8249C32.3905 59.97 32.4636 60.1028 32.5697 60.2063C32.6758 60.3099 32.8103 60.3797 32.9561 60.4069C33.1019 60.434 33.2525 60.4173 33.3888 60.3589C33.5251 60.3005 33.641 60.2029 33.7219 60.0786L36.9265 55.1538C37.0349 54.9871 37.0727 54.7842 37.0315 54.5897C36.9903 54.3952 36.8736 54.2251 36.707 54.1166L31.7815 50.9114C31.6572 50.8305 31.5117 50.7883 31.3634 50.79C31.2151 50.7918 31.0707 50.8376 30.9484 50.9215C30.8261 51.0054 30.7314 51.1237 30.6763 51.2614C30.6213 51.3991 30.6083 51.55 30.639 51.6951L31.3228 54.9255C27.872 55.2608 24.4098 54.4128 21.5045 52.5209ZM35.2608 54.9645L33.4521 57.7442L32.9695 55.4643C32.9695 55.4626 32.9695 55.4608 32.9695 55.4591C32.9648 55.4291 32.9583 55.3995 32.95 55.3703L32.4814 53.1559L35.2608 54.9645Z" fill="white"/>
<path d="M30.0459 6.30369L34.9712 9.50829C35.0955 9.5892 35.241 9.63143 35.3893 9.62964C35.5376 9.62784 35.6821 9.5821 35.8044 9.4982C35.9267 9.4143 36.0213 9.29601 36.0764 9.1583C36.1315 9.02059 36.1445 8.86964 36.1137 8.72454L35.4299 5.49408C37.5115 5.29303 39.6122 5.52067 41.6025 6.16295C43.5927 6.80523 45.4301 7.84853 47.0015 9.22846C48.5729 10.6084 49.8448 12.2957 50.7388 14.1862C51.6329 16.0768 52.13 18.1305 52.1996 20.2206C52.206 20.4149 52.2877 20.5991 52.4274 20.7343C52.5671 20.8695 52.7539 20.9452 52.9483 20.9454C52.9571 20.9454 52.9657 20.9454 52.9743 20.9454C53.173 20.9386 53.3609 20.8532 53.4966 20.7079C53.6324 20.5626 53.7048 20.3693 53.6981 20.1706C53.6212 17.8615 53.0691 15.5931 52.0762 13.507C51.0833 11.4208 49.6709 9.56185 47.9273 8.04609C46.1836 6.53034 44.1462 5.39037 41.9422 4.6974C39.7382 4.00443 37.415 3.77334 35.1177 4.01855L34.3929 0.594652C34.3622 0.449548 34.2892 0.316804 34.1831 0.21321C34.0769 0.109617 33.9424 0.0398289 33.7966 0.0126743C33.6508 -0.0144803 33.5002 0.00221844 33.3639 0.0606582C33.2276 0.119098 33.1117 0.216653 33.0308 0.340984L29.8264 5.2664C29.7179 5.43307 29.6802 5.63599 29.7213 5.83052C29.7625 6.02504 29.8793 6.19525 30.0459 6.30369ZM33.3008 2.67598L33.7833 4.95638C33.7833 4.95788 33.7833 4.9595 33.7833 4.96112C33.788 4.99064 33.7944 5.01985 33.8026 5.0486L34.2714 7.26364L31.4922 5.45572L33.3008 2.67598Z" fill="white"/>
<path d="M22.7584 34.4417V32.8757H27.7411C28.735 32.8746 29.6879 32.4792 30.3906 31.7764C31.0934 31.0737 31.4888 30.1208 31.4899 29.1269V11.6104C31.4899 11.5118 31.4704 11.4142 31.4327 11.3231C31.3949 11.232 31.3395 11.1493 31.2697 11.0797L23.6929 3.51874C23.6911 3.51699 23.689 3.51574 23.6871 3.51399C23.6174 3.44121 23.5336 3.38331 23.4409 3.34377C23.3482 3.30424 23.2484 3.28388 23.1476 3.28394C23.1237 3.28394 23.1001 3.28531 23.0768 3.28743C23.053 3.28519 23.0291 3.28394 23.0051 3.28394H12.4805C11.4866 3.28506 10.5337 3.68038 9.83093 4.38317C9.12814 5.08597 8.73282 6.03883 8.7317 7.03273V8.5986H3.7488C2.7549 8.59973 1.80203 8.99505 1.09924 9.69784C0.396447 10.4006 0.00112451 11.3535 0 12.3474V34.4417C0.00112451 35.4356 0.396447 36.3884 1.09924 37.0912C1.80203 37.794 2.7549 38.1894 3.7488 38.1905H19.0096C20.0035 38.1894 20.9564 37.794 21.6592 37.0912C22.362 36.3884 22.7573 35.4356 22.7584 34.4417ZM15.1659 11.1558L20.2118 16.1917H17.4152C16.8188 16.191 16.2471 15.9538 15.8254 15.5321C15.4038 15.1104 15.1666 14.5387 15.1659 13.9424V11.1558ZM23.8973 5.84111L28.9432 10.8764H26.1466C25.5503 10.8757 24.9786 10.6385 24.5569 10.2168C24.1352 9.79514 23.898 9.22343 23.8973 8.62709V5.84111ZM10.2312 7.03273C10.2319 6.4364 10.4691 5.86469 10.8908 5.44302C11.3125 5.02135 11.8842 4.78415 12.4805 4.78345H22.3982V8.62709C22.3993 9.62099 22.7946 10.5739 23.4974 11.2767C24.2002 11.9794 25.1531 12.3748 26.147 12.3759H29.9907V29.1269C29.99 29.7232 29.7529 30.2949 29.3312 30.7166C28.9095 31.1383 28.3378 31.3755 27.7415 31.3762H22.7584V16.9251C22.7584 16.8265 22.739 16.7288 22.7012 16.6378C22.6634 16.5467 22.6081 16.464 22.5383 16.3944L14.9616 8.83353C14.9598 8.83165 14.9574 8.83028 14.9556 8.8284C14.8858 8.7557 14.802 8.69785 14.7093 8.65836C14.6166 8.61887 14.5169 8.59854 14.4161 8.5986C14.3924 8.5986 14.3688 8.59998 14.3456 8.60223C14.3217 8.59985 14.2979 8.5986 14.2738 8.5986H10.2312V7.03273ZM1.49952 34.4417V12.3474C1.50021 11.7511 1.73741 11.1794 2.15908 10.7577C2.58075 10.336 3.15246 10.0988 3.7488 10.0981H13.6664V13.9419C13.6675 14.9358 14.0628 15.8887 14.7656 16.5914C15.4684 17.2942 16.4213 17.6896 17.4152 17.6907H21.2589V34.4417C21.2582 35.038 21.021 35.6097 20.5994 36.0314C20.1777 36.4531 19.606 36.6903 19.0096 36.691H3.7488C3.15246 36.6903 2.58075 36.4531 2.15908 36.0314C1.73741 35.6097 1.50021 35.038 1.49952 34.4417Z" fill="white"/>
<path d="M14.9338 24.519H13.4343C13.2355 24.519 13.0448 24.598 12.9042 24.7386C12.7636 24.8792 12.6846 25.07 12.6846 25.2688C12.6846 25.4677 12.7636 25.6584 12.9042 25.799C13.0448 25.9396 13.2355 26.0186 13.4343 26.0186H14.9338C15.1327 26.0186 15.3234 25.9396 15.464 25.799C15.6046 25.6584 15.6836 25.4677 15.6836 25.2688C15.6836 25.07 15.6046 24.8792 15.464 24.7386C15.3234 24.598 15.1327 24.519 14.9338 24.519Z" fill="white"/>
<path d="M17.602 20.7703H5.15601C4.95716 20.7703 4.76646 20.8493 4.62585 20.9899C4.48524 21.1305 4.40625 21.3212 4.40625 21.52C4.40625 21.7189 4.48524 21.9096 4.62585 22.0502C4.76646 22.1908 4.95716 22.2698 5.15601 22.2698H17.602C17.8009 22.2698 17.9916 22.1908 18.1322 22.0502C18.2728 21.9096 18.3518 21.7189 18.3518 21.52C18.3518 21.3212 18.2728 21.1305 18.1322 20.9899C17.9916 20.8493 17.8009 20.7703 17.602 20.7703Z" fill="white"/>
<path d="M10.4099 24.519H5.15601C4.95716 24.519 4.76646 24.598 4.62585 24.7386C4.48524 24.8792 4.40625 25.07 4.40625 25.2688C4.40625 25.4677 4.48524 25.6584 4.62585 25.799C4.76646 25.9396 4.95716 26.0186 5.15601 26.0186H10.4099C10.6088 26.0186 10.7995 25.9396 10.9401 25.799C11.0807 25.6584 11.1597 25.4677 11.1597 25.2688C11.1597 25.07 11.0807 24.8792 10.9401 24.7386C10.7995 24.598 10.6088 24.519 10.4099 24.519Z" fill="white"/>
<path d="M56.7508 28.2671H44.2548C43.3934 28.268 42.5676 28.6107 41.9585 29.2197C41.3494 29.8288 41.0068 30.6547 41.0059 31.516V57.8617C41.0068 58.7231 41.3494 59.5489 41.9585 60.158C42.5676 60.7671 43.3934 61.1097 44.2548 61.1107H56.7508C57.6122 61.1097 58.438 60.7671 59.0471 60.158C59.6562 59.5489 59.9988 58.7231 59.9998 57.8617V31.516C59.9988 30.6547 59.6562 29.8288 59.0471 29.2197C58.438 28.6107 57.6122 28.268 56.7508 28.2671ZM44.2548 29.7666H56.7508C57.2146 29.7671 57.6593 29.9516 57.9873 30.2796C58.3153 30.6075 58.4997 31.0522 58.5002 31.516V32.6407H57.0425C56.8436 32.6407 56.6529 32.7197 56.5123 32.8603C56.3717 33.0009 56.2927 33.1916 56.2927 33.3904C56.2927 33.5893 56.3717 33.78 56.5123 33.9206C56.6529 34.0612 56.8436 34.1402 57.0425 34.1402H58.5002V53.8964H42.5054V34.1402H51.3088C51.5077 34.1402 51.6984 34.0612 51.839 33.9206C51.9796 33.78 52.0586 33.5893 52.0586 33.3904C52.0586 33.1916 51.9796 33.0009 51.839 32.8603C51.6984 32.7197 51.5077 32.6407 51.3088 32.6407H42.5054V31.516C42.5059 31.0522 42.6903 30.6075 43.0183 30.2796C43.3463 29.9516 43.791 29.7671 44.2548 29.7666ZM56.7508 59.6111H44.2548C43.791 59.6107 43.3463 59.4262 43.0183 59.0982C42.6903 58.7702 42.5059 58.3255 42.5054 57.8617V55.3959H58.5002V57.8617C58.4997 58.3255 58.3153 58.7702 57.9873 59.0982C57.6593 59.4262 57.2146 59.6107 56.7508 59.6111Z" fill="white"/>
<path d="M53.5945 34.1403H54.7214C54.9202 34.1403 55.1109 34.0613 55.2515 33.9207C55.3921 33.7801 55.4711 33.5894 55.4711 33.3905C55.4711 33.1917 55.3921 33.001 55.2515 32.8603C55.1109 32.7197 54.9202 32.6407 54.7214 32.6407H53.5945C53.3956 32.6407 53.2049 32.7197 53.0643 32.8603C52.9237 33.001 52.8447 33.1917 52.8447 33.3905C52.8447 33.5894 52.9237 33.7801 53.0643 33.9207C53.2049 34.0613 53.3956 34.1403 53.5945 34.1403Z" fill="white"/>
<path d="M50.5029 56.1705C50.2392 56.1705 49.9815 56.2487 49.7623 56.3952C49.5431 56.5416 49.3723 56.7498 49.2714 56.9934C49.1705 57.2369 49.1441 57.505 49.1955 57.7635C49.247 58.0221 49.3739 58.2596 49.5603 58.446C49.7468 58.6324 49.9843 58.7594 50.2428 58.8108C50.5014 58.8622 50.7694 58.8359 51.013 58.735C51.2565 58.6341 51.4647 58.4632 51.6112 58.244C51.7576 58.0248 51.8358 57.7671 51.8358 57.5035C51.8354 57.1501 51.6949 56.8113 51.445 56.5614C51.1951 56.3115 50.8563 56.1709 50.5029 56.1705ZM50.5029 57.6701C50.4699 57.67 50.4377 57.6602 50.4104 57.6419C50.383 57.6236 50.3617 57.5976 50.3491 57.5671C50.3365 57.5367 50.3332 57.5032 50.3396 57.4709C50.3461 57.4386 50.362 57.4089 50.3853 57.3856C50.4086 57.3624 50.4382 57.3465 50.4705 57.3401C50.5029 57.3337 50.5363 57.337 50.5668 57.3496C50.5972 57.3622 50.6232 57.3836 50.6415 57.411C50.6598 57.4383 50.6696 57.4705 50.6696 57.5035C50.6695 57.5477 50.6519 57.59 50.6207 57.6212C50.5894 57.6525 50.547 57.67 50.5029 57.6701Z" fill="white"/>
</svg>
