<svg width="30" height="30" viewBox="0 0 30 30" fill="none" xmlns="http://www.w3.org/2000/svg">
<path d="M29.5004 11.2799C29.4974 11.246 29.4906 11.2125 29.4802 11.18C29.4735 11.1511 29.4641 11.1228 29.4522 11.0954C29.4385 11.0688 29.422 11.0435 29.4031 11.0202C29.3841 10.9924 29.3622 10.9669 29.3377 10.9439C29.3298 10.9371 29.3264 10.9277 29.318 10.9208L24.5884 7.24761V3.44063C24.5884 2.62582 23.9278 1.96524 23.113 1.96524H17.7834L15.6494 0.308363C15.1223 -0.102788 14.383 -0.102788 13.8558 0.308363L11.7214 1.96524H6.39179C5.57698 1.96524 4.9164 2.62577 4.9164 3.44063V7.24766L0.188285 10.9209C0.179929 10.9278 0.176471 10.9371 0.168633 10.944C0.144139 10.9669 0.122181 10.9925 0.10322 11.0202C0.0843164 11.0436 0.0678335 11.0688 0.0540593 11.0955C0.0421294 11.1228 0.0327929 11.1511 0.0260499 11.1801C0.0157913 11.2121 0.0090483 11.2451 0.00587852 11.2785C0.00587852 11.2888 0 11.2977 0 11.308V28.0305C0.00069159 28.3433 0.101894 28.6476 0.288681 28.8985C0.291621 28.9029 0.292139 28.9083 0.29554 28.9122C0.298997 28.9162 0.306374 28.9206 0.311273 28.926C0.587563 29.2896 1.01727 29.5039 1.47389 29.5059H28.031C28.4894 29.5045 28.9209 29.2891 29.1975 28.9236C29.2014 28.9187 29.2074 28.9172 29.2108 28.9123C29.2142 28.9074 29.2147 28.903 29.2177 28.8985C29.4045 28.6476 29.5057 28.3433 29.5063 28.0305V11.3094C29.5063 11.2991 29.5009 11.2902 29.5004 11.2799ZM14.4573 1.08438C14.629 0.947911 14.8722 0.947911 15.044 1.08438L16.1785 1.96518H13.3261L14.4573 1.08438ZM1.5978 28.5223L14.4573 18.5334C14.6292 18.3971 14.8722 18.3971 15.044 18.5334L27.907 28.5223H1.5978ZM28.5227 27.7556L15.6494 17.7573C15.1221 17.3465 14.3831 17.3465 13.8558 17.7573L0.982058 27.7556V12.0584L9.04116 18.3165C9.2559 18.483 9.56492 18.4439 9.73142 18.2292C9.89792 18.0145 9.85885 17.7054 9.64411 17.5389L1.45666 11.1815L4.91646 8.49281V12.2929C4.91646 12.5645 5.13667 12.7847 5.40824 12.7847C5.67986 12.7847 5.90001 12.5645 5.90001 12.2929V3.44057C5.90001 3.16895 6.12017 2.9488 6.39179 2.9488H23.1129C23.3845 2.9488 23.6047 3.16895 23.6047 3.44057V12.2929C23.6047 12.5645 23.8248 12.7847 24.0964 12.7847C24.3681 12.7847 24.5882 12.5645 24.5882 12.2929V8.49281L28.048 11.1815L19.8463 17.5503C19.7052 17.6572 19.6325 17.8317 19.6559 18.0072C19.6793 18.1827 19.7952 18.3321 19.9593 18.3983C20.1235 18.4645 20.3107 18.4374 20.4493 18.3273L28.5226 12.0584V27.7556H28.5227Z" fill="#048F00"/>
<path d="M20.6527 11.8014V9.83419C20.6527 6.57484 18.0105 3.93262 14.7512 3.93262C11.4918 3.93262 8.84961 6.57484 8.84961 9.83419C8.84961 13.0935 11.4918 15.7358 14.7512 15.7358C15.0228 15.7358 15.243 15.5156 15.243 15.244C15.243 14.9724 15.0228 14.7522 14.7512 14.7522C12.0351 14.7522 9.83322 12.5503 9.83322 9.83424C9.83322 7.11814 12.0351 4.91629 14.7512 4.91629C17.4673 4.91629 19.6691 7.11814 19.6691 9.83424V11.8014C19.6691 12.3447 19.2288 12.785 18.6855 12.785C18.1423 12.785 17.7019 12.3447 17.7019 11.8014V9.83424C17.7019 9.56262 17.4818 9.34246 17.2101 9.34246C16.9385 9.34246 16.7183 9.56262 16.7183 9.83424C16.7183 10.9207 15.8376 11.8014 14.7512 11.8014C13.6647 11.8014 12.784 10.9207 12.784 9.83424C12.784 8.74781 13.6647 7.86707 14.7512 7.86707C15.0228 7.86707 15.243 7.64692 15.243 7.37529C15.243 7.10367 15.0228 6.88352 14.7512 6.88352C13.4305 6.88058 12.2687 7.7555 11.9068 9.0256C11.5449 10.2957 12.0709 11.6516 13.1947 12.3453C14.3185 13.039 15.7664 12.9014 16.7395 12.0085C16.8466 13.0486 17.7505 13.8219 18.7946 13.7666C19.8387 13.7113 20.656 12.8469 20.6527 11.8014Z" fill="#048F00"/>
</svg>
