<svg width="20" height="20" viewBox="0 0 20 20" fill="none" xmlns="http://www.w3.org/2000/svg">
<g clip-path="url(#clip0)">
<path d="M13.5454 19.115C13.6317 19.1189 13.714 19.1229 13.8003 19.1229C14.7216 19.1229 15.49 18.7896 16.0938 18.1349C16.0977 18.131 16.1055 18.1231 16.1095 18.1192C16.3251 17.8605 16.5682 17.6252 16.8269 17.3782C17.0033 17.2096 17.1837 17.0371 17.3523 16.8568C18.156 16.0178 18.152 14.9554 17.3444 14.1477L15.1097 11.913C14.7255 11.5131 14.2668 11.3014 13.7807 11.3014C13.2984 11.3014 12.8358 11.5092 12.4399 11.9052L11.1186 13.2264C11.001 13.1598 10.8795 13.101 10.7619 13.0421C10.6129 12.9677 10.4757 12.8971 10.3541 12.8226C9.1427 12.0542 8.04496 11.0505 6.99426 9.76068C6.465 9.09419 6.11607 8.53748 5.86908 7.96508C6.21408 7.65144 6.53557 7.32604 6.84529 7.00848C6.95898 6.89478 7.07267 6.77717 7.19029 6.65955C8.02928 5.82056 8.02928 4.78163 7.19029 3.94656L6.08079 2.83706C5.95141 2.70768 5.82595 2.5783 5.7005 2.45285C5.4535 2.20193 5.19867 1.93926 4.94384 1.70403C4.55963 1.31982 4.10485 1.11987 3.62263 1.11987C3.14432 1.11987 2.6817 1.31982 2.28181 1.70403L0.890031 3.09189C0.380364 3.60156 0.0902465 4.221 0.0275183 4.93845C-0.0430509 5.83233 0.121611 6.78109 0.545026 7.92588C1.19975 9.69403 2.1838 11.3367 3.64223 13.0931C5.41822 15.2102 7.55098 16.8842 9.98953 18.0643C10.9187 18.5073 12.1615 19.0248 13.5454 19.115ZM4.3832 12.4776C2.99534 10.8075 2.06618 9.25493 1.45066 7.59264C1.07037 6.56938 0.929236 5.77352 0.988043 5.01686C1.03117 4.5268 1.21935 4.11906 1.5722 3.77014L2.95614 2.3862C3.16785 2.18233 3.39916 2.07648 3.62655 2.07648C3.85002 2.07648 4.06956 2.18233 4.28127 2.39012C4.52826 2.62143 4.76742 2.8645 5.01833 3.11933C5.14378 3.24871 5.27316 3.38201 5.40646 3.51138L6.51596 4.62089C6.97074 5.07567 6.97074 5.52261 6.51596 5.97739C6.39835 6.095 6.28073 6.21262 6.16704 6.33023C5.82203 6.67916 5.50055 7.00848 5.14378 7.32604C5.13594 7.33388 5.13202 7.3378 5.12418 7.34564C4.80662 7.6632 4.85367 7.969 4.93208 8.19639C4.936 8.20816 4.93992 8.216 4.94384 8.22776C5.23003 8.91777 5.63385 9.57249 6.25329 10.3566C7.37063 11.7327 8.54679 12.803 9.8484 13.6302C10.0091 13.7322 10.1777 13.8184 10.3424 13.9007C10.4914 13.9752 10.6286 14.0458 10.7501 14.1203C10.7658 14.1281 10.7776 14.136 10.7932 14.1438C10.9187 14.2065 11.0402 14.2379 11.1657 14.2379C11.4754 14.2379 11.6714 14.0419 11.7342 13.9752L13.1259 12.5834C13.3376 12.3717 13.565 12.262 13.7885 12.262C14.0629 12.262 14.2864 12.4345 14.4315 12.5834L16.674 14.826C17.2229 15.3748 16.972 15.8688 16.6622 16.1942C16.5054 16.3628 16.3408 16.5196 16.1683 16.6882C15.9056 16.9391 15.6351 17.2018 15.3881 17.4958C14.9647 17.9506 14.4628 18.1623 13.8081 18.1623C13.7454 18.1623 13.6787 18.1584 13.616 18.1545C12.3967 18.0761 11.2676 17.6017 10.4169 17.1979C8.09593 16.0805 6.06902 14.4927 4.3832 12.4776Z" fill="#048F00"/>
<path d="M10.5114 3.49965C10.2488 3.45653 10.0018 3.63295 9.95864 3.8917C9.91551 4.15438 10.0919 4.40137 10.3507 4.4445C11.4288 4.62876 12.409 5.13843 13.1931 5.91861C13.9732 6.69879 14.4829 7.68284 14.6672 8.76098C14.7064 8.99621 14.9102 9.16087 15.1416 9.16087C15.169 9.16087 15.1964 9.15695 15.2239 9.15303C15.4866 9.1099 15.663 8.85899 15.6159 8.60024C15.4003 7.32607 14.7965 6.16168 13.8752 5.24036C12.9461 4.31512 11.7856 3.71528 10.5114 3.49965Z" fill="#048F00"/>
<path d="M18.6302 8.99622C18.6577 8.99622 18.6851 8.9923 18.7126 8.98838C18.9752 8.94525 19.1516 8.69434 19.1046 8.43559C18.7478 6.32635 17.752 4.40922 16.2269 2.88414C14.6979 1.35907 12.7808 0.363256 10.6716 0.0064897C10.4089 -0.0366359 10.1619 0.139787 10.1188 0.398541C10.0757 0.661215 10.2521 0.908207 10.5108 0.951333C12.4201 1.27673 14.1608 2.17845 15.5448 3.56239C16.9287 4.94633 17.8304 6.68704 18.1558 8.59633C18.195 8.83156 18.3989 8.99622 18.6302 8.99622Z" fill="#048F00"/>
</g>
<defs>
<clipPath id="clip0">
<rect width="19.1229" height="19.1229" fill="white"/>
</clipPath>
</defs>
</svg>
