<svg width="29" height="29" viewBox="0 0 29 29" fill="none" xmlns="http://www.w3.org/2000/svg">
<g clip-path="url(#clip0)">
<path d="M19.9841 28.2009C20.1114 28.2067 20.2328 28.2125 20.3601 28.2125C21.7193 28.2125 22.853 27.7208 23.7437 26.7549C23.7495 26.7491 23.7611 26.7375 23.7668 26.7318C24.085 26.35 24.4436 26.003 24.8253 25.6386C25.0856 25.3899 25.3517 25.1354 25.6004 24.8693C26.7861 23.6315 26.7803 22.0641 25.5888 20.8726L22.2919 17.5757C21.7251 16.9857 21.0484 16.6734 20.3311 16.6734C19.6197 16.6734 18.9372 16.9799 18.353 17.5641L16.4038 19.5133C16.2303 19.415 16.051 19.3282 15.8775 19.2415C15.6577 19.1316 15.4552 19.0275 15.2759 18.9176C13.4887 17.7839 11.8692 16.3032 10.319 14.4003C9.53821 13.417 9.02343 12.5957 8.65904 11.7512C9.16803 11.2885 9.64232 10.8084 10.0993 10.3399C10.267 10.1722 10.4347 9.99865 10.6082 9.82513C11.846 8.58736 11.846 7.0546 10.6082 5.82261L8.97138 4.18573C8.78051 3.99486 8.59542 3.80399 8.41033 3.6189C8.04594 3.24873 7.66998 2.8612 7.29402 2.51416C6.72719 1.94733 6.05624 1.65234 5.34481 1.65234C4.63916 1.65234 3.95665 1.94733 3.36669 2.51416L1.31337 4.56169C0.561447 5.31361 0.133431 6.22749 0.0408875 7.28596C-0.0632244 8.60471 0.179703 10.0044 0.804375 11.6934C1.7703 14.3019 3.22209 16.7254 5.37373 19.3167C7.99388 22.44 11.1404 24.9098 14.738 26.6508C16.1088 27.3044 17.9424 28.0679 19.9841 28.2009ZM6.46691 18.4086C4.41937 15.9446 3.04857 13.6541 2.14048 11.2017C1.57943 9.6921 1.37121 8.51795 1.45797 7.40164C1.52159 6.67864 1.79922 6.0771 2.31978 5.56233L4.36153 3.52057C4.67387 3.21981 5.01512 3.06364 5.3506 3.06364C5.68028 3.06364 6.00419 3.21981 6.31652 3.52636C6.68091 3.86761 7.03374 4.22622 7.40391 4.60218C7.589 4.79305 7.77987 4.98971 7.97653 5.18058L9.6134 6.81745C10.2843 7.4884 10.2843 8.14777 9.6134 8.81872C9.43988 8.99224 9.26636 9.16576 9.09863 9.33928C8.58963 9.85405 8.11535 10.3399 7.589 10.8084C7.57743 10.82 7.57165 10.8258 7.56008 10.8373C7.09158 11.3058 7.16099 11.757 7.27667 12.0925C7.28245 12.1098 7.28823 12.1214 7.29402 12.1387C7.71625 13.1567 8.312 14.1226 9.22587 15.2794C10.8743 17.3096 12.6095 18.8887 14.5298 20.1091C14.7669 20.2595 15.0157 20.3867 15.2586 20.5082C15.4784 20.6181 15.6808 20.7222 15.8601 20.8321C15.8833 20.8436 15.9006 20.8552 15.9237 20.8668C16.1088 20.9593 16.2881 21.0056 16.4732 21.0056C16.9302 21.0056 17.2194 20.7164 17.3119 20.6181L19.3652 18.5647C19.6776 18.2524 20.013 18.0905 20.3427 18.0905C20.7476 18.0905 21.0773 18.345 21.2913 18.5647L24.5997 21.8732C25.4095 22.683 25.0393 23.4117 24.5824 23.8918C24.351 24.1405 24.1081 24.3719 23.8536 24.6206C23.4661 24.9908 23.067 25.3783 22.7026 25.8121C22.0779 26.483 21.3376 26.7954 20.3716 26.7954C20.2791 26.7954 20.1808 26.7896 20.0882 26.7838C18.2894 26.6681 16.6236 25.9683 15.3685 25.3725C11.9444 23.7241 8.95403 21.3816 6.46691 18.4086Z" fill="#048F00"/>
<path d="M15.5077 5.16241C15.1202 5.09878 14.7558 5.35906 14.6922 5.74081C14.6286 6.12833 14.8888 6.49273 15.2706 6.55635C16.8612 6.8282 18.3072 7.58012 19.464 8.73113C20.615 9.88215 21.3669 11.3339 21.6388 12.9245C21.6966 13.2716 21.9974 13.5145 22.3386 13.5145C22.3791 13.5145 22.4196 13.5087 22.4601 13.5029C22.8476 13.4393 23.1079 13.0691 23.0385 12.6874C22.7204 10.8076 21.8296 9.08974 20.4704 7.7305C19.0996 6.36548 17.3875 5.48053 15.5077 5.16241Z" fill="#048F00"/>
<path d="M27.4856 13.2718C27.5261 13.2718 27.5665 13.266 27.607 13.2602C27.9946 13.1966 28.2548 12.8264 28.1854 12.4447C27.6591 9.33289 26.19 6.50451 23.94 4.25454C21.6842 2.00457 18.8559 0.53543 15.7441 0.00908609C15.3565 -0.0545379 14.9921 0.205742 14.9285 0.587486C14.8649 0.975013 15.1252 1.33941 15.5069 1.40303C18.3237 1.8831 20.8918 3.21342 22.9336 5.25517C24.9753 7.29692 26.3056 9.86502 26.7857 12.6818C26.8436 13.0289 27.1443 13.2718 27.4856 13.2718Z" fill="#048F00"/>
</g>
<defs>
<clipPath id="clip0">
<rect width="28.2124" height="28.2124" fill="white"/>
</clipPath>
</defs>
</svg>
